<?xml version="1.0" standalone="no"?>
<!DOCTYPE svg PUBLIC "-//W3C//DTD SVG 20010904//EN"
 "http://www.w3.org/TR/2001/REC-SVG-20010904/DTD/svg10.dtd">
<svg version="1.0" xmlns="http://www.w3.org/2000/svg"
 width="80.000000pt" height="80.000000pt" viewBox="0 0 80.000000 80.000000"
 preserveAspectRatio="xMidYMid meet">

<g transform="translate(0.000000,80.000000) scale(0.100000,-0.100000)"
fill="#000000" stroke="none">
<path d="M140 570 c0 -69 3 -82 22 -100 l22 -20 -22 -23 c-27 -29 -28 -68 -2
-92 17 -16 20 -31 20 -115 0 -80 3 -99 16 -104 27 -10 34 3 34 59 l0 54 51
-35 c28 -19 65 -46 81 -59 39 -33 48 -32 98 10 23 19 46 35 50 35 5 0 22 12
39 26 l31 26 0 -55 c0 -41 4 -56 16 -61 29 -11 34 4 34 101 0 87 2 98 25 125
31 37 31 49 -1 81 l-26 26 21 27 c45 58 31 156 -25 170 -34 9 -54 -3 -75 -43
-15 -30 -16 -30 -44 -16 -16 9 -40 26 -54 39 -31 29 -62 31 -86 4 -10 -11 -33
-28 -51 -39 l-33 -20 -3 37 c-2 26 -8 38 -20 40 -15 3 -18 -5 -20 -55 l-1 -58
-6 55 c-5 41 -10 56 -23 58 -16 3 -18 -5 -18 -55 0 -41 -3 -54 -10 -43 -5 8
-10 34 -10 58 0 31 -4 42 -15 42 -12 0 -15 -16 -15 -80z m40 -40 c17 0 20 8
22 58 l2 57 3 -57 c3 -50 7 -58 23 -58 18 0 20 7 20 57 0 31 3 54 6 51 3 -3 5
-37 5 -74 0 -59 -3 -71 -22 -87 -22 -18 -22 -23 -20 -183 2 -142 0 -164 -13
-164 -13 0 -14 21 -9 170 4 119 3 170 -5 170 -29 0 -42 32 -40 103 2 70 2 71
5 15 3 -50 7 -58 23 -58z m244 104 c28 -11 17 -24 -20 -24 -31 0 -35 2 -24 15
14 17 21 18 44 9z m216 -14 c28 -28 27 -98 -1 -134 -20 -26 -22 -38 -20 -192
2 -142 0 -164 -13 -164 -14 0 -15 19 -9 163 l6 163 -27 27 c-33 33 -36 92 -5
131 25 31 42 33 69 6z m-137 -48 c22 -12 33 -28 38 -52 4 -19 17 -43 30 -52
21 -18 21 -23 15 -116 -8 -109 -20 -130 -91 -163 -76 -35 -165 -21 -232 35
l-33 28 0 100 c0 87 2 102 20 116 11 10 23 35 28 57 7 35 13 42 52 57 54 22
127 17 173 -10z m-318 -209 c-5 -20 -8 -23 -20 -13 -20 16 -19 39 3 63 17 19
17 19 20 -3 2 -12 1 -33 -3 -47z m471 31 c4 -17 1 -31 -10 -42 -15 -15 -16
-13 -16 26 0 47 16 56 26 16z m-216 -250 c-15 -17 -61 -15 -68 4 -2 8 9 12 38
12 37 0 41 -2 30 -16z"/>
<path d="M613 602 c10 -10 17 -26 17 -35 0 -9 5 -17 11 -17 6 0 8 9 3 23 -8
28 -23 47 -37 47 -5 0 -3 -8 6 -18z"/>
<path d="M352 542 c-7 -5 17 -8 53 -8 36 0 60 3 53 8 -7 4 -31 8 -53 8 -22 0
-46 -4 -53 -8z"/>
<path d="M288 483 c-22 -26 -28 -59 -16 -99 10 -39 72 -112 112 -134 23 -12
29 -11 65 14 51 36 91 94 98 143 10 74 -64 120 -124 78 -18 -13 -22 -13 -33 0
-17 21 -83 19 -102 -2z m99 -17 l19 -24 22 25 c28 31 68 28 95 -9 18 -24 19
-32 8 -68 -12 -40 -69 -108 -109 -129 -17 -9 -27 -4 -66 30 -54 48 -76 85 -76
130 0 65 69 94 107 45z"/>
<path d="M500 420 c0 -20 -10 -46 -26 -67 -14 -18 -20 -33 -14 -33 12 0 48 55
56 88 4 13 1 29 -5 35 -8 8 -11 2 -11 -23z"/>
<path d="M270 284 c0 -13 37 -47 67 -63 36 -18 114 -13 153 10 35 22 62 50 54
58 -2 3 -11 -4 -19 -16 -31 -45 -128 -68 -178 -42 -12 6 -34 23 -49 37 -16 14
-28 21 -28 16z"/>
</g>
</svg>
